PathFileType	4	(X/Y/Z)	S01_0016_Gait_markers.trc
DataRate	CameraRate	NumFrames	NumMarkers	Units	OrigDataRate	OrigDataStartFrame	OrigNumFrames
250.000000	250.000000	4	54	mm	250.000000	44	356
Frame#	Time	HEAD_ANT			R_HEAD			L_HEAD			C7			R_BACK			L_BACK			STERNUM			R_ACROMION			R_HUM_PROX			R_HUM_ANT			R_HUM_POST			R_ELBOW_LAT			R_ELBOW_MED			R_FOREARM			R_WIRST_LAT			R_WRITS_MED			R_HAND			L_ACROMION			L_HUM_PROX			L_HUM_ANT			L_HUM_POST			L_ELBOW_LAT			L_ELBOW_MED			L_FOREARM			L_WRIST_LAT			L_WIRST_MED			L_HAND			R_ILIAC			SACRUM			L_ILIAC			R_GTROCH			R_THIGH__1			R_THIGH_2			R_THIGH_3			R_THIGH_4			R_SHANK_1			R_SHANK_2			R_SHANK_3			R_SHANK_4			R_HEEL			R_FOOT_LAT			R_FOOT_MED			L_GTROCH			L_THIGH_1			L_THIGH_2			L_THIGH_3			L_THIGH_4			L_SHANK_1			L_SHANK_2			L_SHANK_3			L_SHANK_4			L_HEEL			L_FOOT_LAT			L_FOOT_MED			
		X1	Y1	Z1	X2	Y2	Z2	X3	Y3	Z3	X4	Y4	Z4	X5	Y5	Z5	X6	Y6	Z6	X7	Y7	Z7	X8	Y8	Z8	X9	Y9	Z9	X10	Y10	Z10	X11	Y11	Z11	X12	Y12	Z12	X13	Y13	Z13	X14	Y14	Z14	X15	Y15	Z15	X16	Y16	Z16	X17	Y17	Z17	X18	Y18	Z18	X19	Y19	Z19	X20	Y20	Z20	X21	Y21	Z21	X22	Y22	Z22	X23	Y23	Z23	X24	Y24	Z24	X25	Y25	Z25	X26	Y26	Z26	X27	Y27	Z27	X28	Y28	Z28	X29	Y29	Z29	X30	Y30	Z30	X31	Y31	Z31	X32	Y32	Z32	X33	Y33	Z33	X34	Y34	Z34	X35	Y35	Z35	X36	Y36	Z36	X37	Y37	Z37	X38	Y38	Z38	X39	Y39	Z39	X40	Y40	Z40	X41	Y41	Z41	X42	Y42	Z42	X43	Y43	Z43	X44	Y44	Z44	X45	Y45	Z45	X46	Y46	Z46	X47	Y47	Z47	X48	Y48	Z48	X49	Y49	Z49	X50	Y50	Z50	X51	Y51	Z51	X52	Y52	Z52	X53	Y53	Z53	X54	Y54	Z54	

45	0.176	266.4984130859375	1711.093994140625	-337.0758056640621	210.7129974365234	1658.14697265625	-259.056976318359	208.6689147949219	1660.388061523438	-406.6008911132809	73.42418670654297	1490.153442382812	-338.458831787109	-6.096156597137451	1293.413208007812	-279.9704589843747	0.3630424439907074	1300.750122070312	-418.6029052734372	247.1693420410156	1323.609741210938	-330.6720886230466	138.1909027099609	1441.540771484375	-163.7853546142575	81.97417449951172	1283.594360351562	-79.3174285888669	138.9223022460938	1196.074462890625	-65.63843536376926	17.717041015625	1202.9716796875	-74.37181091308567	59.54288864135742	1095.5419921875	-59.99168777465796	50.71979522705078	1089.668823242188	-140.3238220214841	151.4486389160156	910.04541015625	-38.20191192626933	194.0499420166016	842.1756591796875	-69.70234680175763	121.0721130371094	821.5496826171875	-46.02415466308575	184.7578430175781	755.4966430664062	-13.2464637756346	158.0560150146484	1445.852172851562	-501.5692749023434	144.5697631835938	1284.38818359375	-603.6844482421872	210.2628631591797	1206.441772460938	-602.8149414062498	90.27705383300781	1205.93701171875	-634.9555664062498	155.7749786376953	1104.738647460938	-646.3663330078123	99.36709594726562	1091.88330078125	-593.051818847656	286.8428955078125	948.0416259765626	-614.0407714843748	325.8115234375	896.2965087890626	-558.6478271484373	288.4550170898438	864.0335693359376	-621.9438476562498	372.8826293945312	824.4658203125001	-600.511291503906	138.62255859375	1037.491577148438	-173.2669372558591	14.82753753662109	1013.291564941406	-337.2644348144529	126.0201263427734	1039.347778320313	-518.3641357421873	111.8893051147461	887.0118408203125	-160.6748046874998	238.2120971679688	625.270751953125	-185.4925689697264	285.4913635253906	660.186767578125	-180.5933380126952	325.424072265625	568.362548828125	-221.5049896240233	263.615966796875	550.22998046875	-210.412872314453	327.7949523925781	334.7604064941407	-208.9529266357421	386.6873779296875	334.0016174316407	-223.6208343505859	410.6077270507812	253.2017974853516	-242.4799194335937	348.7926635742188	237.2415771484376	-232.0698547363281	385.9365539550781	26.86709403991706	-323.6677856445312	545.5643920898438	55.89180755615239	-235.9280242919922	588.3438720703125	92.83419036865241	-323.46875	80.70138549804688	936.5101928710939	-518.8940429687498	79.02094268798828	645.8489379882814	-514.4299316406249	34.19213485717773	681.8817138671876	-528.1079101562499	-10.50598430633545	588.9644165039064	-498.5472412109374	50.63335800170898	572.0923461914064	-491.3824768066405	-105.4320373535156	335.2271728515626	-485.9144897460937	-166.1164855957031	342.9426574707032	-491.3339233398437	-208.3314361572266	267.9712219238282	-473.8768920898437	-148.1779632568359	244.8102111816407	-462.9258422851562	-332.9035949707031	122.5118713378907	-406.233642578125	-186.2214965820312	22.99650955200206	-468.2375793457031	-147.6108703613281	26.09149742126473	-363.6225891113281	
46	0.18	272.0535583496094	1710.753051757812	-336.0880126953121	216.5317993164062	1657.692993164062	-258.2776489257809	214.2827911376953	1660.08056640625	-405.6946411132809	78.58687591552734	1489.380493164062	-337.8747863769528	-0.0001067628909368068	1292.76123046875	-279.3829040527341	6.265382289886475	1300.372924804688	-418.0765686035153	253.1512145996094	1323.251831054688	-329.9677429199216	144.1649169921875	1440.866821289062	-163.0692749023434	87.99478912353516	1282.87353515625	-78.72937011718722	145.0000457763672	1195.31298828125	-65.23576354980442	23.82907676696777	1202.150024414062	-73.82112121582004	65.60799407958984	1094.816162109375	-59.58053588867163	52.82205963134766	1089.196533203125	-141.1482696533201	157.2945098876953	909.1882934570312	-38.04830169677714	199.8824005126953	841.1369018554688	-69.65223693847638	126.8604507446289	820.7518920898438	-45.790573120117	190.4389038085938	754.6102905273438	-12.92569828033431	163.9733123779297	1445.364990234375	-500.832122802734	150.3538665771484	1284.03955078125	-602.9296264648434	215.7755889892578	1206.105102539063	-602.2294311523435	96.53680419921875	1205.53466796875	-634.309143066406	161.2327575683594	1104.335205078125	-645.678527832031	104.9513092041016	1091.606201171875	-592.0902709960935	292.0876770019531	947.3500366210939	-613.8392333984373	330.95751953125	895.6128540039064	-558.3920288085935	293.6593627929688	863.2458496093751	-621.5085449218748	377.8138427734375	823.4827880859376	-600.444885253906	144.2007293701172	1037.176025390625	-172.8873138427732	21.08510780334473	1012.709045410156	-336.9508666992185	132.1013641357422	1038.84326171875	-518.0103759765623	118.6106719970703	886.6639404296875	-160.4734802246092	244.8873748779297	624.7105712890625	-186.1231689453124	292.0344543457031	659.6834716796875	-180.5486602783202	332.1646728515625	568.0657348632812	-221.6733398437499	270.326416015625	549.7900390625	-210.5316925048827	332.8307495117188	334.2445678710938	-209.3609313964843	391.5233154296875	332.6798400878907	-224.2830047607421	414.421142578125	251.3632049560547	-243.4200134277343	352.6282958984375	236.3194274902344	-232.3384094238281	386.6613159179688	26.86033821105964	-324.1628723144531	546.7573852539062	52.355884552002	-236.6553344726562	590.2947387695312	89.0517883300782	-323.6554870605469	87.02656555175781	935.7944335937501	-518.6046142578123	85.53285980224609	645.3251342773439	-514.3646240234374	40.52223205566406	681.3695678710939	-527.2910766601561	-4.189218044281006	588.3414306640626	-498.6021118164061	57.23959732055664	571.6571044921876	-492.8028259277343	-100.8539733886719	335.3494873046876	-486.3666381835937	-161.1536407470703	343.972869873047	-491.3671874999999	-204.6858978271484	269.3153076171876	-474.5386047363281	-145.0717315673828	245.3232879638673	-464.3714294433593	-330.994384765625	125.2096633911134	-407.5142822265625	-185.7924957275391	23.28447151184092	-468.3989562988281	-147.4779663085938	26.16273880004891	-363.7263488769531	
47	0.184	277.783447265625	1710.20556640625	-335.0318603515621	222.3252105712891	1657.151977539062	-257.3725280761715	220.0525207519531	1659.643920898438	-404.7033386230465	84.37165069580078	1488.813598632812	-337.0290832519528	6.128779888153076	1292.136108398438	-278.9355163574216	12.28962326049805	1299.882934570312	-417.3664245605466	259.2115478515625	1322.808227539062	-329.3269042968747	150.0558166503906	1440.34033203125	-162.3112640380856	94.04412841796875	1282.15087890625	-78.02679443359347	151.0910034179688	1194.620849609375	-64.80133819580051	29.80180931091309	1201.329833984375	-73.30493164062473	71.10620880126953	1093.931518554688	-59.31104660034156	63.03363418579102	1088.31884765625	-139.533264160156	163.2038269042969	908.326171875	-37.92801284790019	205.7743377685547	840.3945922851562	-69.58023834228497	132.7845916748047	819.9608154296875	-45.73713684082013	195.9787902832031	753.751220703125	-13.07859039306624	169.9102935791016	1444.885131835938	-499.957855224609	156.2063140869141	1283.7451171875	-602.1448364257809	221.4760284423828	1205.606323242188	-601.502014160156	102.0509872436523	1205.297607421875	-633.446594238281	166.6508483886719	1103.9775390625	-644.9107666015623	110.6152038574219	1091.265380859375	-591.0899658203123	297.3824157714844	946.7104492187501	-613.5365600585935	336.5034790039062	894.7571411132814	-558.2742919921873	298.7181396484375	862.7599487304689	-621.4494628906248	382.8158264160156	822.7494506835939	-600.4381713867185	150.0247039794922	1036.887573242188	-172.584518432617	27.36660003662109	1012.233947753906	-336.7312011718748	138.1819458007812	1038.440673828125	-517.7116699218748	125.2013244628906	886.3252563476562	-160.3044586181639	251.3305053710938	624.6953735351562	-186.5111541748045	298.4184875488281	659.6180419921875	-181.6593170166014	338.8145751953125	567.7142333984375	-221.8934936523436	276.864990234375	549.5899658203125	-211.0247955322264	337.7767944335938	333.7107238769532	-209.5114593505859	396.0192260742188	331.3749084472657	-225.4352874755859	418.1184692382812	249.8578186035157	-244.3841400146484	356.0404968261719	235.6588745117188	-233.3213348388671	387.9054260253906	27.96575546264656	-325.4855346679688	547.8887329101562	47.5643920898438	-237.5218353271484	593.1392822265625	83.75528717041023	-323.902587890625	93.42130279541016	935.4208984375001	-518.290588378906	92.00350189208984	644.7637939453126	-514.3730468749999	47.02334594726562	680.8696899414064	-527.2527465820311	2.298208236694336	587.8410034179689	-498.9602661132811	63.79636764526367	570.9159545898439	-492.2874450683593	-96.12384796142578	335.3855285644532	-486.8241271972656	-155.2307586669922	344.7036132812501	-492.1132202148437	-200.9405670166016	270.6744995117189	-474.7139892578124	-141.9405670166016	245.9365234375001	-464.0286865234374	-328.5657958984375	128.5313873291016	-408.1970825195312	-185.3300933837891	23.70613861083995	-468.6121215820312	-147.3203582763672	26.28402709960946	-363.7870178222656	
48	0.188	283.4826965332031	1709.939819335938	-334.1864013671871	227.9814147949219	1656.659790039062	-256.4654846191403	225.9008178710938	1659.398071289062	-403.8156738281247	90.75409698486328	1488.441284179688	-336.0244750976559	12.1863374710083	1291.396728515625	-278.2685241699216	18.35356903076172	1299.463256835938	-416.7300109863278	265.2792053222656	1322.523071289062	-328.5444335937497	155.9005126953125	1439.768920898438	-161.4959411621091	100.0549926757812	1281.498779296875	-77.38575744628878	157.1904907226562	1193.928344726562	-64.2915954589841	35.88414001464844	1200.640014648438	-72.7599792480466	77.56867218017578	1093.470581054688	-58.85248184204077	69.12056732177734	1087.620361328125	-139.2494049072263	169.2653503417969	907.6502075195312	-37.72660827636699	211.7223815917969	839.632568359375	-69.2781448364256	138.5680694580078	819.2725830078125	-45.58329010009747	201.7067108154297	752.8648071289062	-12.96844387054427	175.8593139648438	1444.511962890625	-499.2261047363278	161.8453826904297	1283.439331054688	-601.4885864257809	227.3039703369141	1205.198120117188	-600.816711425781	107.7332077026367	1204.914306640625	-632.6108398437498	172.1650543212891	1103.54736328125	-644.1986694335935	116.1241760253906	1091.1669921875	-590.2349853515623	302.513671875	946.1587524414064	-613.3540039062498	341.5426025390625	894.0327148437501	-558.1286621093748	303.7179870605469	862.1044311523439	-621.329650878906	387.7887878417969	821.9209594726564	-600.4719238281248	156.0883941650391	1036.864013671875	-172.1068725585935	33.66609191894531	1011.920593261719	-336.6069335937498	144.3773498535156	1038.014404296875	-517.5031738281248	131.7990570068359	885.9747314453125	-159.6936340332029	257.9725952148438	624.5767211914062	-186.8141784667967	305.1741027832031	659.06640625	-181.4706573486327	345.1786499023438	567.3191528320312	-222.2095184326171	283.1823120117188	549.3187866210938	-211.1229095458983	342.4300231933594	333.4642944335938	-209.9890747070312	400.7748718261719	330.6019592285157	-226.261749267578	421.9115600585938	248.8025970458985	-245.2203826904296	359.6384582519531	235.3855438232422	-233.8194885253906	389.6803588867188	29.6346626281739	-325.9938354492188	549.2222900390625	43.00115585327153	-238.2408905029297	596.7531127929688	77.80990600585945	-324.7236633300781	99.79348754882812	934.7406616210939	-517.9798583984373	98.81828308105469	644.2559814453126	-514.0841674804686	53.74486923217773	680.2745971679689	-527.2857055664061	9.102021217346191	587.0621337890626	-498.743194580078	70.21436309814453	570.2395019531251	-491.4387817382811	-91.51685333251953	335.3202209472657	-487.2752685546874	-150.9558868408203	345.2717590332032	-492.2046813964843	-196.7296752929688	272.1186523437501	-475.2765808105468	-138.3484191894531	246.523406982422	-464.4812622070312	-326.3048706054688	131.8218688964845	-408.7572937011718	-184.9144592285156	24.06479454040538	-468.7593383789062	-147.1409606933594	26.35548210144051	-363.8811340332031	
